:SAMPLES-PER-SECOND 30
:FULLY-SPECIFIED
:DEGREES
140
root  10.0313 37.1757 -25.1649 -16.0665 -73.4456 18.9289
RightUpLeg  -35.0092 -13.5009 -14.8901
RightLeg  30.2064 -1.88402 -1.41992
RightFoot  2.99817 -1.18626 9.55889
RightToes  0.000482159 0.542163 -0.142577
Spine  53.1642 -4.71482 8.9336
Spine1  -0.943789 0.311597 -2.21365
HEad  -51.2075 19.3459 -25.9565
LeftShoulder1  11.6102 -16.5801 -50.4667
LeftArm  -11.939 9.79093 -24.1206
LeftForeArm  45.7127 -44.9207 -8.03709
LeftHand  -0.25398 0.0180481 5.50724
RightShoulder  6.0554 10.7025 36.6258
RightArm  -18.9505 2.48741 27.4374
RightForeArm  13.95 64.1539 22.7299
RightHand  -3.41209 8.67454 -28.0439
LeftUpLeg  -32.1453 5.01577 -5.32114
LeftLeg  38.377 4.24953 3.98404
LeftFoot  -8.95429 0.0804636 -1.2283
LeftToes  1.06246e-005 4.65855e-005 -8.18502e-006
141
root  10.2621 37.0878 -24.9598 -15.0575 -72.2929 17.4553
RightUpLeg  -34.5399 -10.0552 -16.4403
RightLeg  30.409 1.42605 0.669107
RightFoot  3.24507 -1.17844 9.37583
RightToes  0.000482159 0.542163 -0.142577
Spine  53.7208 -4.21927 8.17242
Spine1  -1.76954 0.573885 -2.33584
HEad  -56.0513 17.2082 -24.4171
LeftShoulder1  11.7443 -16.6597 -50.8439
LeftArm  -11.5717 9.39336 -24.1317
LeftForeArm  45.5762 -44.3572 -7.85947
LeftHand  -0.25398 0.0180481 5.50724
RightShoulder  6.17739 10.8557 37.0087
RightArm  -19.3465 0.837023 26.8203
RightForeArm  12.5113 63.2432 21.8663
RightHand  -3.34494 8.54455 -27.7654
LeftUpLeg  -32.1511 3.31067 -5.66357
LeftLeg  38.5807 4.60824 4.31697
LeftFoot  -8.28661 0.0522187 -0.084617
LeftToes  1.06246e-005 4.65855e-005 -8.18502e-006
142
root  10.5225 36.9919 -24.8 -13.274 -70.7128 15.3895
RightUpLeg  -34.4355 -7.29541 -17.6818
RightLeg  30.9106 1.9746 1.03594
RightFoot  4.88589 -1.17777 8.47729
RightToes  0.000482159 0.542163 -0.142577
Spine  54.8113 -4.08154 7.93466
Spine1  -4.01982 0.674864 -2.39249
HEad  -59.9815 15.2418 -23.0794
LeftShoulder1  11.8794 -16.7794 -51.1209
LeftArm  -11.3464 9.72523 -24.0529
LeftForeArm  46.3824 -44.5591 -7.87418
LeftHand  -0.25398 0.0180481 5.50724
RightShoulder  6.31698 11.0654 37.3362
RightArm  -18.9684 -1.71803 26.1339
RightForeArm  10.2501 62.8234 21.6806
RightHand  -3.63334 9.48552 -28.2295
LeftUpLeg  -32.5977 1.71004 -6.00078
LeftLeg  38.93 4.19832 4.01504
LeftFoot  -7.46076 -0.00441206 1.42198
LeftToes  1.06246e-005 4.65855e-005 -8.18502e-006
143
root  10.8336 36.8555 -24.6296 -9.81572 -68.623 12.0301
RightUpLeg  -34.4708 -7.15472 -18.2393
RightLeg  31.1472 0.740424 0.246289
RightFoot  6.83987 -1.3826 8.90784
RightToes  0.000482159 0.542163 -0.142577
Spine  56.0374 -4.50856 8.6876
Spine1  -7.62561 0.59387 -2.30254
HEad  -62.2408 13.1087 -22.238
LeftShoulder1  12.002 -16.8837 -51.3797
LeftArm  -11.6857 10.9515 -23.9718
LeftForeArm  48.4258 -46.6744 -8.46584
LeftHand  -0.25398 0.0180481 5.50724
RightShoulder  6.44644 11.1792 37.8635
RightArm  -18.2656 -5.65182 25.0185
RightForeArm  9.43051 63.4868 22.5111
RightHand  -4.10283 10.8884 -29.0997
LeftUpLeg  -34.1287 0.709471 -6.28274
LeftLeg  39.9282 3.63576 3.64715
LeftFoot  -6.28472 -0.0956421 3.03171
LeftToes  1.06246e-005 4.65855e-005 -8.18502e-006
144
root  11.1872 36.6378 -24.3767 -5.12166 -66.7106 7.45039
RightUpLeg  -34.2926 -9.1484 -17.8187
RightLeg  30.655 0.4876 0.0704566
RightFoot  7.87605 -1.66899 10.1619
RightToes  0.000482159 0.542163 -0.142577
Spine  57.213 -4.80072 9.90008
Spine1  -11.6904 0.716372 -1.02481
HEad  -63.1086 11.4069 -22.1919
LeftShoulder1  12.0924 -16.8753 -51.7803
LeftArm  -13.0174 12.9098 -24.1668
LeftForeArm  51.7247 -51.179 -9.98185
LeftHand  -0.25398 0.0180481 5.50724
RightShoulder  6.506 11.0321 38.6855
RightArm  -18.2078 -10.78 23.4136
RightForeArm  9.19231 63.874 22.9763
RightHand  -4.68536 12.3646 -30.3758
LeftUpLeg  -36.3848 0.100434 -5.94963
LeftLeg  41.9732 3.12562 3.40502
LeftFoot  -5.41827 -0.167401 3.88053
LeftToes  1.06246e-005 4.65855e-005 -8.18502e-006
145
root  11.6089 36.3395 -24.0515 -0.771866 -65.5016 2.56259
RightUpLeg  -33.8484 -11.2837 -16.7216
RightLeg  30.1131 1.92011 0.969395
RightFoot  8.01981 -1.76734 10.6611
RightToes  0.000482159 0.542163 -0.142577
Spine  58.5198 -4.1409 10.2665
Spine1  -15.2971 1.34191 2.24984
HEad  -63.4938 11.1319 -23.0084
LeftShoulder1  12.0663 -16.6799 -52.1603
LeftArm  -15.2162 14.9944 -24.5131
LeftForeArm  56.4578 -57.7869 -12.9121
LeftHand  -0.25398 0.0180481 5.50724
RightShoulder  6.46109 10.682 39.4374
RightArm  -18.7216 -16.3671 21.7164
RightForeArm  4.66089 61.9854 21.4754
RightHand  -5.74468 14.5457 -32.96
LeftUpLeg  -38.4324 -0.183845 -5.08239
LeftLeg  44.7565 2.38191 2.93986
LeftFoot  -4.97776 -0.210829 4.33333
LeftToes  1.06246e-005 4.65855e-005 -8.18502e-006
146
root  12.1644 35.9688 -23.6855 2.06801 -64.9361 -1.56937
RightUpLeg  -33.6524 -12.6947 -15.7671
RightLeg  30.7436 3.38439 1.93651
RightFoot  8.64694 -1.85269 10.825
RightToes  0.000482159 0.542163 -0.142577
Spine  59.7952 -2.75096 9.47726
Spine1  -17.798 2.16843 6.84241
HEad  -64.1785 12.386 -24.5637
LeftShoulder1  11.8468 -16.3254 -52.1272
LeftArm  -17.5415 16.0273 -24.2604
LeftForeArm  63.1301 -65.4723 -18.1174
LeftHand  -0.25398 0.0180481 5.50724
RightShoulder  6.3213 10.3328 39.5696
RightArm  -18.9694 -21.6904 20.3003
RightForeArm  -4.83842 58.1844 18.9378
RightHand  -6.91945 16.5145 -35.9545
LeftUpLeg  -39.8911 0.0435485 -4.56227
LeftLeg  47.5966 1.82463 2.58175
LeftFoot  -4.30634 -0.322807 5.64338
LeftToes  1.06246e-005 4.65855e-005 -8.18502e-006
